<?xml version="1.0" standalone="no"?>
<!DOCTYPE svg PUBLIC "-//W3C//DTD SVG 20010904//EN"
 "http://www.w3.org/TR/2001/REC-SVG-20010904/DTD/svg10.dtd">
<svg version="1.0" xmlns="http://www.w3.org/2000/svg"
 width="128.000000pt" height="128.000000pt" viewBox="0 0 128.000000 128.000000"
 preserveAspectRatio="xMidYMid meet">
<metadata>
Created by potrace 1.11, written by Peter Selinger 2001-2013
</metadata>
<g transform="translate(0.000000,128.000000) scale(0.100000,-0.100000)"
fill="#000000" stroke="none">
<path d="M578 1265 c-15 -8 -29 -24 -33 -35 -3 -11 -6 -170 -7 -353 0 -355 0
-356 50 -409 31 -33 60 -35 96 -7 59 46 59 52 58 429 -2 325 -3 346 -21 364
-26 25 -107 32 -143 11z m98 -50 c16 -13 17 -16 4 -25 -8 -5 -26 -10 -40 -10
-14 0 -32 5 -40 10 -13 9 -12 12 4 25 11 8 27 15 36 15 9 0 25 -7 36 -15z m14
-372 c0 -280 -4 -315 -34 -335 -20 -14 -31 -8 -49 21 -15 26 -17 63 -17 314
l0 285 50 -1 50 0 0 -284z"/>
<path d="M600 610 c0 -17 7 -20 40 -20 33 0 40 3 40 20 0 17 -7 20 -40 20 -33
0 -40 -3 -40 -20z"/>
<path d="M353 1164 c-18 -9 -36 -26 -40 -38 -11 -33 -12 -536 -1 -581 6 -24
25 -55 49 -78 l39 -39 32 19 c18 11 43 34 55 53 20 29 23 46 24 144 1 279 -1
470 -6 486 -7 21 -63 50 -97 50 -12 0 -37 -8 -55 -16z m82 -46 c47 -21 7 -48
-51 -34 -38 10 -28 30 23 45 1 1 14 -4 28 -11z m25 -324 c0 -233 -5 -276 -36
-288 -8 -3 -20 -3 -28 0 -31 12 -36 55 -36 288 l0 233 50 0 50 0 0 -233z"/>
<path d="M370 610 c0 -17 7 -20 40 -20 33 0 40 3 40 20 0 17 -7 20 -40 20 -33
0 -40 -3 -40 -20z"/>
<path d="M812 1163 c-17 -8 -34 -23 -37 -33 -3 -11 -6 -147 -6 -303 -1 -305 1
-317 53 -363 38 -34 55 -35 88 -7 62 52 64 60 65 366 1 310 -2 329 -59 345
-45 14 -68 12 -104 -5z m101 -52 c15 -15 -2 -31 -33 -31 -58 0 -80 23 -37 39
25 10 56 6 70 -8z m7 -318 c0 -232 -5 -275 -36 -287 -8 -3 -20 -3 -28 0 -31
12 -36 55 -36 288 l0 233 50 -1 50 -1 0 -232z"/>
<path d="M830 609 c0 -16 7 -19 40 -19 32 0 40 4 40 19 0 15 -8 19 -40 19 -33
1 -40 -3 -40 -19z"/>
<path d="M144 1069 c-66 -19 -68 -26 -69 -276 -1 -253 4 -280 60 -331 34 -32
36 -32 65 -17 17 9 42 33 55 54 26 38 26 38 26 280 1 249 -1 260 -40 280 -29
15 -66 19 -97 10z m76 -59 c22 -14 -2 -33 -40 -33 -38 0 -62 19 -40 33 8 5 26
10 40 10 14 0 32 -5 40 -10z m10 -268 c0 -156 -3 -188 -17 -213 -22 -37 -48
-37 -68 1 -12 23 -15 68 -15 212 l0 183 50 0 50 0 0 -183z"/>
<path d="M140 610 c0 -17 7 -20 40 -20 33 0 40 3 40 20 0 17 -7 20 -40 20 -33
0 -40 -3 -40 -20z"/>
<path d="M1042 1060 c-17 -10 -33 -24 -37 -30 -4 -6 -7 -119 -7 -251 1 -267 3
-281 72 -327 l33 -22 31 24 c17 13 40 39 51 59 19 32 20 52 20 263 -1 126 -4
239 -8 250 -15 43 -107 63 -155 34z m98 -50 c22 -14 -2 -33 -40 -33 -38 0 -62
19 -40 33 8 5 26 10 40 10 14 0 32 -5 40 -10z m10 -271 c0 -179 -1 -186 -24
-217 l-24 -33 -26 31 -26 32 0 186 0 187 50 0 50 0 0 -186z"/>
<path d="M1060 610 c0 -17 7 -20 40 -20 32 0 40 4 40 18 0 15 -8 19 -40 20
-34 2 -40 -1 -40 -18z"/>
<path d="M75 402 c-35 -25 -75 -182 -75 -294 0 -49 4 -63 25 -83 l24 -25 591
0 591 0 24 25 c21 20 25 34 25 82 0 32 -7 92 -16 133 -9 41 -18 86 -21 100 -2
14 -14 35 -25 48 l-21 22 -556 0 c-306 0 -560 -4 -566 -8z m156 -77 c1 -19 3
-44 4 -55 1 -11 3 -24 4 -30 1 -8 80 -15 82 -7 0 1 2 25 5 52 7 70 11 77 36
73 24 -3 25 -6 27 -80 l1 -48 45 0 45 0 1 50 c2 74 2 75 27 78 26 4 30 -5 34
-73 l3 -50 43 -3 c36 -3 42 0 43 17 1 12 3 30 4 41 1 11 3 31 4 45 1 24 2 25
79 22 l77 -2 1 -30 c1 -16 2 -45 3 -62 1 -32 2 -33 46 -33 l45 0 1 50 c2 80 5
86 38 75 16 -5 21 -16 23 -63 l3 -57 43 -3 c41 -3 42 -2 43 27 1 17 3 36 4 41
1 6 3 22 4 36 1 25 2 25 68 22 l67 -3 11 -45 c6 -25 15 -64 18 -87 l7 -43
-580 0 c-457 0 -580 3 -580 13 0 12 27 133 35 154 2 7 29 11 69 12 l66 0 1
-34z m999 -223 c0 -16 -5 -33 -12 -40 -17 -17 -1139 -17 -1156 0 -7 7 -12 24
-12 40 l0 27 590 0 590 0 0 -27z"/>
</g>
</svg>
